<?xml version="1.0" encoding="utf-8"?>
<!-- Generator: Adobe Illustrator 16.0.4, SVG Export Plug-In . SVG Version: 6.00 Build 0)  -->
<!DOCTYPE svg PUBLIC "-//W3C//DTD SVG 1.1//EN" "http://www.w3.org/Graphics/SVG/1.1/DTD/svg11.dtd">
<svg version="1.1" id="Ebene_1" xmlns="http://www.w3.org/2000/svg" xmlns:xlink="http://www.w3.org/1999/xlink" x="0px" y="0px"
	 width="512px" height="512px" viewBox="0 0 512 512" enable-background="new 0 0 512 512" xml:space="preserve">
<g>
	<g>
		<path d="M405.924,218.252h-2.236c-0.242,0.764-0.51,1.527-0.786,2.289c2.161-6.384,3.307-13.002,3.307-19.788
			c0-52.614-68.352-95.263-152.665-95.263c-32.502,0-62.627,6.343-87.384,17.146h-1.162v0.506
			c-38.81,17.272-64.118,45.596-64.118,77.61c0,5.979,0.892,11.826,2.58,17.499h-2.296c2.558,45.494,22.954,85.908,53.89,113.554
			L124.54,473.248l15.307,3.261l28.87-133.812c21.207,15.011,46.167,24.558,73.082,26.724v66.575h15.659v-66.171
			c25.601-0.683,49.634-8.019,70.609-20.445l27.428,127.129l15.307-3.261L342.06,340.011
			C378.545,312.516,403.1,268.477,405.924,218.252z M361.141,250.292H245.86c2.436-3.633,4.846-8.038,6.999-13.338h121.307
			C370.48,241.663,366.104,246.121,361.141,250.292z M376.962,233.145h-122.65c1.31-3.713,2.487-7.816,3.463-12.348
			c0,0,0.625-1.119,1.623-2.897h125.375C382.933,223.183,380.3,228.28,376.962,233.145z M387.886,199.803
			c0,4.87-0.667,9.643-1.931,14.289H261.548c3.149-5.566,7.507-13.178,9.992-17.147h116.264
			C387.854,197.894,387.886,198.846,387.886,199.803z M387.457,193.131H274.539c3.628-3.476,12.826-11.324,20.839-17.147h87.063
			C385.02,181.488,386.719,187.226,387.457,193.131z M367.403,155.029h-68.048c-0.124-0.099-0.235-0.191-0.362-0.291
			c-7.39-5.826-10.933-9.875-12.791-13.048h64.743C357.109,145.775,362.624,150.244,367.403,155.029z M344.812,137.876h-60.287
			c-0.721-2.386-0.812-4.36-1.998-6.638c0,0-8.776-2.568-18.448-4.793h56.102C329.082,129.673,337.341,133.516,344.812,137.876z
			 M214.518,152.384c0,0,24.668,15.687,35.445,40.848C249.963,193.231,230.966,178.316,214.518,152.384z M233.146,215.092
			c0,0-25.11-19.786-46.742-54.314C186.404,160.778,219.031,181.554,233.146,215.092z M237.738,145.628
			c0,0,19.646,12.505,28.204,32.599C265.941,178.227,250.813,166.331,237.738,145.628z M252.016,115.015
			c20.11,0,39.197,2.729,56.369,7.622H195.646C212.818,117.744,231.905,115.015,252.016,115.015z M183.851,126.445h50.87
			c-10.509,4.326-32.373,10.665-39.581,10.85c0,0-0.604,0.211-1.617,0.582H159.22C166.69,133.516,174.949,129.673,183.851,126.445z
			 M153.086,141.69h30.806c-4.21,1.815-8.495,3.91-10.664,5.71c0,0-15.618-2.703-27.044,7.628h-9.556
			C141.407,150.244,146.922,145.775,153.086,141.69z M133.037,158.837h11.04c-1.706,3.141-4.292,7.957-7.087,13.338h-13.447
			C126.107,167.536,129.283,163.074,133.037,158.837z M116.146,199.803c0-0.957,0.032-1.909,0.082-2.858h8.887
			c-0.972,2.396-1.705,4.462-2.073,5.996l8.892,11.151h-13.856C116.813,209.445,116.146,204.673,116.146,199.803z M119.258,217.9
			h15.711l12.156,15.245h-20.056C123.732,228.28,121.099,223.183,119.258,217.9z M129.866,236.954h20.296l7.055,8.847
			c0,0,7.917-2.208,12.456,4.491h-26.782C137.929,246.121,133.551,241.663,129.866,236.954z M147.675,254.1H171.5
			c0.352,1.067,0.647,2.253,0.861,3.589c0,0,3.987,4.586,9.646,9.748h-11.901C161.843,263.534,154.31,259.061,147.675,254.1z
			 M178.861,271.247h7.536c2.112,1.735,4.347,3.425,6.622,4.927C188.133,274.7,183.4,273.061,178.861,271.247z M209.479,259.827
			c-14.362-0.683-74.795-75.331-76.12-79.716c-0.06-0.199-0.101-0.374-0.144-0.549c-2.358,4.695-4.647,9.429-6.479,13.569h-10.163
			c0.739-5.905,2.438-11.643,5.016-17.147h13.438c-0.16,0.312-0.32,0.629-0.479,0.943c0.338,0.057,0.601,0.17,0.601,0.17
			s60.969,76.847,74.609,78.844c13.646,2.002,34.495-26.341,35.999-31.721c1.51-5.385,29.628-66.632,60.595-62.99
			c-0.698-0.728-1.516-1.521-2.478-2.393h67.119c3.754,4.236,6.931,8.698,9.493,13.338h-79.554c2.955-1.871,5.408-3.108,6.846-3.222
			c0,0,5.53-0.246-1.04-7.313c-3.478-0.201-30.822,0.359-58.722,63.893C242.654,241.629,223.841,260.51,209.479,259.827z
			 M257.457,295.992v-0.029c13.898-0.219,27.342-1.582,40.079-3.97C284.863,294.469,271.436,295.87,257.457,295.992z
			 M252.016,284.585c-13.793,0-27.098-1.292-39.638-3.678c7.5-1.923,7.852-5.075,11.598-9.66H325.17
			C304.054,279.686,278.955,284.585,252.016,284.585z M333.925,267.438H227.703c0.595-0.513,1.243-1.037,1.959-1.576
			c0,0,6.43-2.858,13.441-11.761h113.252C349.722,259.061,342.188,263.534,333.925,267.438z"/>
	</g>
</g>
</svg>
