<?xml version="1.0" encoding="UTF-8" standalone="no"?>
<!-- Generator: Adobe Illustrator 16.0.4, SVG Export Plug-In . SVG Version: 6.00 Build 0)  -->

<svg
   xmlns:dc="http://purl.org/dc/elements/1.1/"
   xmlns:cc="http://creativecommons.org/ns#"
   xmlns:rdf="http://www.w3.org/1999/02/22-rdf-syntax-ns#"
   xmlns:svg="http://www.w3.org/2000/svg"
   xmlns="http://www.w3.org/2000/svg"
   xmlns:sodipodi="http://sodipodi.sourceforge.net/DTD/sodipodi-0.dtd"
   xmlns:inkscape="http://www.inkscape.org/namespaces/inkscape"
   version="1.1"
   id="Ebene_1"
   x="0px"
   y="0px"
   width="1000px"
   height="1000px"
   viewBox="0 0 1000 1000"
   enable-background="new 0 0 1000 1000"
   xml:space="preserve"
   inkscape:version="0.48.2 r9819"
   sodipodi:docname="logo.svg"><metadata
   id="metadata13"><rdf:RDF><cc:Work
       rdf:about=""><dc:format>image/svg+xml</dc:format><dc:type
         rdf:resource="http://purl.org/dc/dcmitype/StillImage" /></cc:Work></rdf:RDF></metadata><defs
   id="defs11" /><sodipodi:namedview
   pagecolor="#ffffff"
   bordercolor="#666666"
   borderopacity="1"
   objecttolerance="10"
   gridtolerance="10"
   guidetolerance="10"
   inkscape:pageopacity="0"
   inkscape:pageshadow="2"
   inkscape:window-width="1922"
   inkscape:window-height="982"
   id="namedview9"
   showgrid="false"
   inkscape:zoom="0.32"
   inkscape:cx="227.65625"
   inkscape:cy="613.75"
   inkscape:window-x="0"
   inkscape:window-y="0"
   inkscape:window-maximized="0"
   inkscape:current-layer="g5"><inkscape:grid
     type="xygrid"
     id="grid2990" /></sodipodi:namedview>
<g
   id="g3">
	<g
   id="g5"
   style="fill:#000000">
		<path
   d="m 73.449,525.77 39.739,0 c 7.475,0 14.506,-0.444 21.089,-1.342 6.583,-0.893 13.287,-3.134 20.113,-6.715 5.852,-2.932 10.644,-6.92 14.384,-11.968 3.737,-5.044 6.705,-10.538 8.899,-16.483 2.194,-5.941 3.737,-12.167 4.632,-18.681 0.892,-6.51 1.341,-12.778 1.341,-18.804 0,-6.35 -0.407,-12.821 -1.218,-19.414 -0.816,-6.594 -2.358,-12.859 -4.632,-18.804 -2.279,-5.941 -5.364,-11.394 -9.265,-16.362 -3.901,-4.963 -8.94,-9.074 -15.115,-12.331 -5.204,-2.767 -11.379,-4.557 -18.528,-5.373 -7.155,-0.812 -14.384,-1.221 -21.699,-1.221 l -39.74,0 z M 500.675,-1.054 c -276.541,0 -500.723,224.553 -500.723,501.554 0,277.001 224.182,501.555 500.723,501.555 276.542,0 500.723,-224.554 500.723,-501.555 0,-277.001 -224.18,-501.554 -500.723,-501.554 z m -198.648,190.839 16.089,0 0,21.735 -16.089,0 z m 15.359,49.33 0,126.497 -14.628,0 0,-126.497 z m -95.568,-35.166 -96.544,0 0,63.493 87.768,0 0,14.163 -87.768,0 0,82.641 c 1.996,0.059 3.986,0.127 5.955,0.229 4.712,0.245 9.344,0.817 13.896,1.709 4.548,0.897 8.979,2.24 13.287,4.029 4.305,1.793 8.49,4.152 12.555,7.083 5.851,4.235 10.643,9.402 14.384,15.506 3.737,6.106 6.705,12.539 8.899,19.293 2.194,6.757 3.737,13.594 4.632,20.513 0.892,6.921 1.341,13.308 1.341,19.169 0,5.86 -0.365,11.806 -1.097,17.827 -0.731,6.025 -1.912,11.928 -3.535,17.705 -1.627,5.78 -3.778,11.317 -6.46,16.605 -2.683,5.292 -6.058,10.136 -10.118,14.531 -4.064,4.558 -8.495,8.222 -13.287,10.988 -4.795,2.771 -9.836,4.925 -15.115,6.472 -5.284,1.55 -10.769,2.606 -16.457,3.174 -5.69,0.572 -11.458,0.854 -17.309,0.854 l -59.974,0 0,-175.825 51.825,0 0,-174.323 113.122,0 z m 25.7,335.985 -14.629,0 0,-126.497 14.629,0 z m 7.823,-273.226 c -3.17,4.724 -5.364,10.299 -6.582,16.728 -1.22,6.434 -1.829,13.149 -1.829,20.147 l -0.0469,60.417 1.7e-4,0 0.0549,21.46743 -14.78016,0.37453 0,-21.734 -0.0102,0 0.15416,-124.993 14.628,0 0,23.687 0.487,0 c 4.061,-10.092 9.304,-17.131 15.726,-21.123 6.419,-3.988 14.909,-5.984 25.478,-5.984 l 0,15.874 c -8.29,-0.16 -15.117,1.141 -20.479,3.907 -5.365,2.77 -9.632,6.513 -12.801,11.232 z m 118.704,255.766 c -2.602,4.641 -6.179,8.509 -10.727,11.601 -4.553,3.094 -9.958,5.415 -16.213,6.959 -6.259,1.545 -13.126,2.319 -20.6,2.319 -7.478,0 -14.103,-1.097 -19.87,-3.296 -5.771,-2.197 -10.689,-5.251 -14.75,-9.156 -4.064,-3.908 -7.234,-8.465 -9.509,-13.678 -2.278,-5.207 -3.576,-10.825 -3.901,-16.849 l 14.873,0 c 2.274,10.909 6.376,18.601 12.312,23.077 5.931,4.48 14.423,6.714 25.477,6.714 5.364,0 9.996,-0.646 13.897,-1.951 3.9,-1.302 7.108,-3.054 9.629,-5.251 2.518,-2.198 4.427,-4.678 5.729,-7.449 1.299,-2.766 1.95,-5.697 1.95,-8.791 0,-6.185 -1.991,-10.783 -5.972,-13.797 -3.985,-3.011 -8.983,-5.373 -14.994,-7.082 -6.016,-1.709 -12.518,-3.175 -19.503,-4.396 -6.991,-1.221 -13.493,-3.052 -19.504,-5.494 -6.015,-2.443 -11.013,-5.941 -14.994,-10.501 -3.984,-4.557 -5.973,-10.989 -5.973,-19.292 0,-10.582 3.858,-19.251 11.581,-26.008 7.718,-6.754 18.651,-10.135 32.79,-10.135 13.653,0 24.746,3.052 33.279,9.157 8.533,6.105 13.691,16.323 15.481,30.647 l -14.872,0 c -1.303,-9.767 -4.998,-16.643 -11.093,-20.635 -6.095,-3.987 -13.774,-5.982 -23.04,-5.982 -9.264,0 -16.334,1.996 -21.21,5.982 -4.875,3.992 -7.313,9.243 -7.313,15.751 0,5.702 1.988,10.055 5.973,13.066 3.981,3.014 8.979,5.455 14.994,7.326 6.011,1.873 12.514,3.542 19.503,5.005 6.987,1.466 13.49,3.541 19.505,6.228 6.011,2.687 11.009,6.312 14.992,10.867 3.981,4.561 5.974,10.909 5.974,19.047 0,6.026 -1.303,11.356 -3.901,15.997 z m -9.733,-156.741 c -5.77,-2.198 -10.688,-5.25 -14.749,-9.158 -4.064,-3.907 -7.234,-8.463 -9.509,-13.675 -2.277,-5.208 -3.577,-10.825 -3.9,-16.85 l 14.873,0 c 2.274,10.91 6.376,18.601 12.311,23.077 5.932,4.479 14.422,6.716 25.477,6.716 5.364,0 9.996,-0.648 13.897,-1.955 3.901,-1.3 7.108,-3.052 9.63,-5.25 2.518,-2.198 4.427,-4.678 5.729,-7.448 1.3,-2.767 1.951,-5.696 1.951,-8.792 0,-6.185 -1.992,-10.783 -5.973,-13.797 -3.985,-3.01 -8.982,-5.373 -14.994,-7.082 -6.015,-1.709 -12.518,-3.175 -19.505,-4.396 -6.989,-1.221 -13.492,-3.053 -19.503,-5.494 -6.015,-2.443 -11.013,-5.941 -14.994,-10.5 -3.984,-4.557 -5.973,-10.989 -5.973,-19.292 0,-10.581 3.858,-19.25 11.581,-26.008 7.717,-6.753 18.65,-10.135 32.791,-10.135 13.653,0 24.746,3.053 33.278,9.158 8.533,6.106 13.691,16.323 15.481,30.647 l -14.872,0 c -1.303,-9.768 -4.998,-16.644 -11.093,-20.634 -6.095,-3.988 -13.774,-5.984 -23.04,-5.984 -9.264,0 -16.334,1.996 -21.21,5.984 -4.876,3.991 -7.314,9.241 -7.314,15.751 0,5.7 1.989,10.053 5.974,13.064 3.981,3.014 8.979,5.457 14.993,7.326 6.011,1.873 12.515,3.541 19.504,5.006 6.986,1.465 13.488,3.542 19.503,6.227 6.011,2.687 11.009,6.311 14.994,10.868 3.981,4.559 5.974,10.908 5.974,19.047 0,6.025 -1.303,11.355 -3.901,15.995 -2.603,4.641 -6.179,8.509 -10.727,11.601 -4.553,3.093 -9.958,5.414 -16.213,6.959 -6.258,1.546 -13.127,2.32 -20.6,2.32 -7.478,10e-4 -14.103,-1.098 -19.871,-3.296 z m 142.479,149.659 c -2.844,5.78 -6.5,10.745 -10.969,14.896 -4.473,4.15 -9.795,7.369 -15.97,9.646 -6.179,2.279 -13.248,3.419 -21.21,3.419 -10.08,0 -18.772,-1.709 -26.087,-5.128 -7.313,-3.419 -13.328,-8.097 -18.04,-14.042 -4.717,-5.939 -8.209,-12.979 -10.483,-21.124 -2.279,-8.138 -3.413,-16.849 -3.413,-26.129 0,-8.792 1.257,-17.215 3.778,-25.274 2.518,-8.06 6.217,-15.179 11.093,-21.368 4.877,-6.185 10.929,-11.112 18.163,-14.774 7.231,-3.664 15.562,-5.495 24.99,-5.495 14.628,0 26.453,3.502 35.473,10.5 9.021,7.002 14.666,17.912 16.944,32.723 l -14.873,0 c -2.601,-9.44 -7.069,-16.809 -13.408,-22.1 -6.338,-5.289 -14.384,-7.937 -24.136,-7.937 -7.478,0 -13.897,1.549 -19.26,4.639 -5.364,3.095 -9.752,7.205 -13.166,12.333 -3.413,5.128 -5.935,10.909 -7.557,17.339 -1.627,6.432 -2.439,12.904 -2.439,19.413 0,6.677 0.77,13.187 2.316,19.537 1.543,6.35 4.023,12.05 7.436,17.093 3.414,5.048 7.802,9.079 13.166,12.088 5.363,3.016 11.862,4.518 19.503,4.518 10.887,0 19.625,-3.009 26.208,-9.033 6.583,-6.022 10.766,-14.324 12.556,-24.91 l 15.602,0 c -1.301,7.002 -3.372,13.394 -6.217,19.17 z M 504.13,369.03 c -10.078,0 -18.771,-1.709 -26.085,-5.128 -7.313,-3.42 -13.328,-8.098 -18.041,-14.042 -4.716,-5.941 -8.208,-12.98 -10.483,-21.124 -2.278,-8.139 -3.413,-16.851 -3.413,-26.129 0,-8.792 1.257,-17.217 3.779,-25.276 2.518,-8.058 6.217,-15.179 11.093,-21.368 4.875,-6.185 10.929,-11.111 18.163,-14.773 7.231,-3.664 15.561,-5.496 24.988,-5.496 14.629,0 26.454,3.504 35.474,10.501 9.021,7.002 14.666,17.911 16.945,32.724 l -14.871,0 c -2.604,-9.44 -7.072,-16.809 -13.41,-22.101 -6.34,-5.289 -14.384,-7.937 -24.138,-7.937 -7.477,0 -13.896,1.55 -19.258,4.641 -5.364,3.094 -9.752,7.204 -13.166,12.332 -3.413,5.129 -5.935,10.909 -7.558,17.339 -1.625,6.434 -2.438,12.905 -2.438,19.415 0,6.677 0.77,13.186 2.316,19.536 1.543,6.349 4.022,12.05 7.436,17.094 3.414,5.048 7.802,9.078 13.165,12.088 5.364,3.015 11.862,4.518 19.503,4.518 10.889,0 19.627,-3.01 26.21,-9.035 6.582,-6.021 10.766,-14.324 12.555,-24.91 l 15.604,0 c -1.303,7.002 -3.374,13.393 -6.218,19.171 -2.844,5.78 -6.502,10.744 -10.971,14.896 -4.471,4.15 -9.793,7.367 -15.968,9.646 -6.179,2.278 -13.251,3.418 -21.213,3.418 z m 142.724,135.006 c -2.765,8.145 -6.705,15.142 -11.823,21.001 -5.12,5.863 -11.3,10.379 -18.529,13.555 -7.235,3.174 -15.236,4.761 -24.013,4.761 -8.13,-0.162 -15.727,-1.63 -22.796,-4.396 -7.069,-2.767 -13.25,-6.917 -18.53,-12.455 -5.282,-5.53 -9.469,-12.452 -12.555,-20.757 -3.089,-8.303 -4.633,-17.986 -4.633,-29.059 0,-9.28 1.22,-17.949 3.658,-26.008 2.437,-8.058 6.095,-15.099 10.971,-21.124 4.875,-6.02 10.971,-10.782 18.285,-14.286 7.314,-3.498 15.846,-5.25 25.6,-5.25 9.91,0 18.527,1.752 25.842,5.25 7.314,3.504 13.409,8.223 18.284,14.165 4.876,5.945 8.492,12.984 10.849,21.124 2.354,8.142 3.536,16.85 3.536,26.129 0,10.096 -1.385,19.212 -4.146,27.35 z m 28.911,-138.424 -14.626,0 0,-82.542 c 0,-11.393 -2.521,-19.94 -7.56,-25.641 -5.038,-5.697 -13.41,-8.548 -25.11,-8.548 -4.553,0 -8.698,0.695 -12.435,2.077 -3.741,1.384 -7.112,3.216 -10.118,5.494 -3.009,2.282 -5.568,4.884 -7.68,7.814 -2.114,2.93 -3.74,6.025 -4.875,9.28 -1.462,4.071 -2.356,7.978 -2.682,11.722 -0.327,3.747 -0.487,7.814 -0.487,12.21 l 0,68.133 -14.629,0 0,-175.826 14.629,0 0,66.911 c 5.851,-6.185 11.905,-11.233 18.162,-15.14 6.255,-3.907 13.774,-5.861 22.551,-5.861 7.802,0 15.031,1.343 21.699,4.03 6.662,2.687 12.27,7.368 16.823,14.042 3.083,4.559 4.912,9.241 5.484,14.042 0.567,4.804 0.853,9.81 0.853,15.019 l 0,82.784 z m 102.253,174.322 -14.626,0 0,-17.582 c -1.952,2.281 -4.146,4.641 -6.583,7.082 -2.438,2.441 -5.242,4.683 -8.411,6.717 -3.171,2.037 -6.87,3.746 -11.093,5.128 -4.229,1.38 -9.106,2.074 -14.629,2.074 -8.452,0 -15.523,-1.183 -21.209,-3.541 -5.692,-2.356 -10.283,-5.655 -13.777,-9.889 -3.496,-4.233 -6.015,-9.158 -7.557,-14.776 -1.547,-5.615 -2.316,-11.758 -2.316,-18.436 l 0,-83.273 14.629,0 0,83.03 c 0,10.908 2.517,19.255 7.557,25.029 5.036,5.78 13.325,8.669 24.867,8.669 6.013,0 11.418,-1.179 16.214,-3.541 4.793,-2.356 8.813,-5.652 12.067,-9.888 3.249,-4.233 5.768,-9.281 7.557,-15.142 1.787,-5.861 2.685,-12.29 2.685,-19.292 l 0,-68.866 14.626,0 0,126.497 z m -67.39,-214.738 c 1.787,6.105 4.426,11.396 7.924,15.874 3.494,4.479 7.922,8.058 13.287,10.744 5.363,2.687 11.538,4.03 18.527,4.03 9.589,0 17.798,-2.523 24.625,-7.571 6.825,-5.044 11.376,-12.21 13.652,-21.49 l 16.333,0 c -1.789,6.025 -4.144,11.6 -7.069,16.728 -2.924,5.128 -6.582,9.607 -10.971,13.431 -4.388,3.827 -9.591,6.8 -15.604,8.914 -6.015,2.114 -13.005,3.175 -20.967,3.175 -10.078,0 -18.772,-1.709 -26.087,-5.128 -7.312,-3.42 -13.326,-8.098 -18.039,-14.042 -4.716,-5.941 -8.21,-12.943 -10.483,-21.001 -2.279,-8.06 -3.414,-16.729 -3.414,-26.008 0,-9.279 1.342,-17.988 4.023,-26.129 2.682,-8.139 6.497,-15.262 11.458,-21.369 4.955,-6.105 11.011,-10.904 18.162,-14.408 7.152,-3.499 15.276,-5.25 24.38,-5.25 17.391,0 31.043,5.984 40.959,17.949 9.913,11.967 14.788,29.347 14.629,52.138 l -98.008,0 c 10e-4,6.837 0.894,13.308 2.683,19.413 z m 202.941,214.738 -14.629,0 0,-82.54 c 0,-11.394 -2.521,-19.941 -7.557,-25.642 -5.04,-5.696 -13.409,-8.546 -25.109,-8.546 -4.554,0 -8.699,0.695 -12.436,2.075 -3.741,1.386 -7.112,3.217 -10.118,5.496 -3.009,2.281 -5.567,4.884 -7.68,7.814 -2.113,2.93 -3.74,6.025 -4.875,9.28 -1.462,4.071 -2.359,7.979 -2.682,11.722 -0.327,3.747 -0.487,7.814 -0.487,12.21 l 0,68.132 -14.629,0 0,-126.498 14.629,0 0,17.583 c 5.851,-6.185 11.903,-11.232 18.163,-15.14 6.255,-3.907 13.773,-5.861 22.551,-5.861 7.802,0 15.031,1.343 21.698,4.029 6.662,2.687 12.27,7.368 16.823,14.042 3.084,4.56 4.913,9.241 5.485,14.042 0.567,4.803 0.852,9.81 0.852,15.018 l 0,82.784 z m 72.654,2.199 c -2.927,0.812 -6.181,1.22 -9.754,1.22 -7.314,0 -12.882,-1.832 -16.7,-5.493 -3.819,-3.663 -5.728,-10.216 -5.728,-19.659 l 0,-92.552 -17.798,0 0,-12.211 17.798,0 0,-35.165 14.626,0 0,35.165 23.65,0 0,12.211 -23.65,0 0,86.691 c 0,3.094 0.08,5.78 0.245,8.06 0.16,2.281 0.647,4.15 1.462,5.615 0.812,1.464 2.074,2.526 3.778,3.174 1.707,0.654 4.104,0.977 7.194,0.977 1.949,0 3.938,-0.159 5.973,-0.487 2.029,-0.324 4.021,-0.731 5.973,-1.222 l 0,11.968 c -1.792,0.321 -4.146,0.89 -7.069,1.708 z M 780.231,261.947 c -3.333,-3.987 -7.519,-7.162 -12.555,-9.524 -5.04,-2.357 -10.811,-3.541 -17.311,-3.541 -6.502,0 -12.232,1.222 -17.188,3.664 -4.958,2.442 -9.184,5.7 -12.678,9.769 -3.496,4.071 -6.3,8.79 -8.411,14.163 -2.114,5.373 -3.496,11.073 -4.144,17.094 l 82.404,0 c 0,-6.185 -0.853,-12.004 -2.56,-17.46 -1.704,-5.454 -4.226,-10.173 -7.557,-14.165 z M 625.4,438.713 c -3.414,-4.801 -7.802,-8.585 -13.165,-11.355 -5.362,-2.766 -11.947,-4.152 -19.746,-4.152 -7.643,0 -14.185,1.507 -19.627,4.518 -5.448,3.014 -9.874,7.001 -13.287,11.965 -3.414,4.968 -5.936,10.666 -7.558,17.095 -1.627,6.434 -2.438,13.064 -2.438,19.903 0,7.814 0.935,15.019 2.804,21.612 1.867,6.592 4.591,12.252 8.167,16.971 3.573,4.725 8.046,8.386 13.409,10.99 5.363,2.606 11.538,3.905 18.53,3.905 7.637,0 14.177,-1.502 19.624,-4.518 5.443,-3.009 9.873,-7.04 13.287,-12.088 3.414,-5.043 5.933,-10.743 7.557,-17.093 1.625,-6.35 2.439,-12.943 2.439,-19.781 0,-7.487 -0.814,-14.488 -2.439,-21.001 -1.624,-6.509 -4.143,-12.168 -7.557,-16.971 z"
   id="path7"
   style="fill:#ffffff"
   inkscape:connector-curvature="0"
   sodipodi:nodetypes="csccsccscccccsccsssssccccccccccccccccccccccccscccccccscccccccccccccscccccccccccccccccssccccccscccscccccscsscccscscccccscccccccscccscccccscsccccscscccccsccccccscscccscccsccccscccscccsccccscccscccsccccscccscccsccccccscccccccscccscccscccscscccccsccccccscccsccccccccscccsccscscccscccccccsccccccscccscccsccccccscsccsccsccccccscccscccccsccccccccccscccsccccccscccccccccscccscccscccsscc" />
	</g>
</g>
</svg>