<?xml version="1.0" encoding="utf-8"?>
<!-- Generator: Adobe Illustrator 16.0.4, SVG Export Plug-In . SVG Version: 6.00 Build 0)  -->
<!DOCTYPE svg PUBLIC "-//W3C//DTD SVG 1.1//EN" "http://www.w3.org/Graphics/SVG/1.1/DTD/svg11.dtd">
<svg version="1.1" id="Ebene_1" xmlns="http://www.w3.org/2000/svg" xmlns:xlink="http://www.w3.org/1999/xlink" x="0px" y="0px"
	 width="1000px" height="1000px" viewBox="0 0 1000 1000" enable-background="new 0 0 1000 1000" xml:space="preserve">
<g>
	<g>
		<path fill="#FFFFFF" d="M73.449,525.77h39.739c7.475,0,14.506-0.444,21.089-1.342c6.583-0.893,13.287-3.134,20.113-6.715
			c5.852-2.932,10.644-6.92,14.384-11.968c3.737-5.044,6.705-10.538,8.899-16.483c2.194-5.941,3.737-12.167,4.632-18.681
			c0.892-6.51,1.341-12.778,1.341-18.804c0-6.35-0.407-12.821-1.218-19.414c-0.816-6.594-2.358-12.859-4.632-18.804
			c-2.279-5.941-5.364-11.394-9.265-16.362c-3.901-4.963-8.94-9.074-15.115-12.331c-5.204-2.767-11.379-4.557-18.528-5.373
			c-7.155-0.812-14.384-1.221-21.699-1.221H73.449V525.77z M500.675-1.054C224.134-1.054-0.048,223.499-0.048,500.5
			c0,277.001,224.182,501.555,500.723,501.555c276.542,0,500.723-224.554,500.723-501.555
			C1001.398,223.499,777.218-1.054,500.675-1.054z M302.027,189.785h16.089v21.735h-16.089V189.785z M317.386,239.115v126.497
			h-14.628V239.115H317.386z M221.818,203.949h-96.544v63.493h87.768v14.163h-87.768v82.641c1.996,0.059,3.986,0.127,5.955,0.229
			c4.712,0.245,9.344,0.817,13.896,1.709c4.548,0.897,8.979,2.24,13.287,4.029c4.305,1.793,8.49,4.152,12.555,7.083
			c5.851,4.235,10.643,9.402,14.384,15.506c3.737,6.106,6.705,12.539,8.899,19.293c2.194,6.757,3.737,13.594,4.632,20.513
			c0.892,6.921,1.341,13.308,1.341,19.169c0,5.86-0.365,11.806-1.097,17.827c-0.731,6.025-1.912,11.928-3.535,17.705
			c-1.627,5.78-3.778,11.317-6.46,16.605c-2.683,5.292-6.058,10.136-10.118,14.531c-4.064,4.558-8.495,8.222-13.287,10.988
			c-4.795,2.771-9.836,4.925-15.115,6.472c-5.284,1.55-10.769,2.606-16.457,3.174c-5.69,0.572-11.458,0.854-17.309,0.854H56.871
			V364.108h51.825V189.785h113.122V203.949z M247.518,539.934h-14.629V413.437h14.629V539.934z M255.341,266.708
			c-3.17,4.724-5.364,10.299-6.582,16.728c-1.22,6.434-1.829,13.149-1.829,20.147v60.525h1.319v21.734h-16.091v-21.734h0.144
			V239.115h14.628v23.687h0.487c4.061-10.092,9.304-17.131,15.726-21.123c6.419-3.988,14.909-5.984,25.478-5.984v15.874
			c-8.29-0.16-15.117,1.141-20.479,3.907C262.777,258.246,258.51,261.989,255.341,266.708z M374.045,522.474
			c-2.602,4.641-6.179,8.509-10.727,11.601c-4.553,3.094-9.958,5.415-16.213,6.959c-6.259,1.545-13.126,2.319-20.6,2.319
			c-7.478,0-14.103-1.097-19.87-3.296c-5.771-2.197-10.689-5.251-14.75-9.156c-4.064-3.908-7.234-8.465-9.509-13.678
			c-2.278-5.207-3.576-10.825-3.901-16.849h14.873c2.274,10.909,6.376,18.601,12.312,23.077c5.931,4.48,14.423,6.714,25.477,6.714
			c5.364,0,9.996-0.646,13.897-1.951c3.9-1.302,7.108-3.054,9.629-5.251c2.518-2.198,4.427-4.678,5.729-7.449
			c1.299-2.766,1.95-5.697,1.95-8.791c0-6.185-1.991-10.783-5.972-13.797c-3.985-3.011-8.983-5.373-14.994-7.082
			c-6.016-1.709-12.518-3.175-19.503-4.396c-6.991-1.221-13.493-3.052-19.504-5.494c-6.015-2.443-11.013-5.941-14.994-10.501
			c-3.984-4.557-5.973-10.989-5.973-19.292c0-10.582,3.858-19.251,11.581-26.008c7.718-6.754,18.651-10.135,32.79-10.135
			c13.653,0,24.746,3.052,33.279,9.157s13.691,16.323,15.481,30.647h-14.872c-1.303-9.767-4.998-16.643-11.093-20.635
			c-6.095-3.987-13.774-5.982-23.04-5.982c-9.264,0-16.334,1.996-21.21,5.982c-4.875,3.992-7.313,9.243-7.313,15.751
			c0,5.702,1.988,10.055,5.973,13.066c3.981,3.014,8.979,5.455,14.994,7.326c6.011,1.873,12.514,3.542,19.503,5.005
			c6.987,1.466,13.49,3.541,19.505,6.228c6.011,2.687,11.009,6.312,14.992,10.867c3.981,4.561,5.974,10.909,5.974,19.047
			C377.946,512.503,376.643,517.833,374.045,522.474z M364.312,365.733c-5.77-2.198-10.688-5.25-14.749-9.158
			c-4.064-3.907-7.234-8.463-9.509-13.675c-2.277-5.208-3.577-10.825-3.9-16.85h14.873c2.274,10.91,6.376,18.601,12.311,23.077
			c5.932,4.479,14.422,6.716,25.477,6.716c5.364,0,9.996-0.648,13.897-1.955c3.901-1.3,7.108-3.052,9.63-5.25
			c2.518-2.198,4.427-4.678,5.729-7.448c1.3-2.767,1.951-5.696,1.951-8.792c0-6.185-1.992-10.783-5.973-13.797
			c-3.985-3.01-8.982-5.373-14.994-7.082c-6.015-1.709-12.518-3.175-19.505-4.396c-6.989-1.221-13.492-3.053-19.503-5.494
			c-6.015-2.443-11.013-5.941-14.994-10.5c-3.984-4.557-5.973-10.989-5.973-19.292c0-10.581,3.858-19.25,11.581-26.008
			c7.717-6.753,18.65-10.135,32.791-10.135c13.653,0,24.746,3.053,33.278,9.158c8.533,6.106,13.691,16.323,15.481,30.647h-14.872
			c-1.303-9.768-4.998-16.644-11.093-20.634c-6.095-3.988-13.774-5.984-23.04-5.984c-9.264,0-16.334,1.996-21.21,5.984
			c-4.876,3.991-7.314,9.241-7.314,15.751c0,5.7,1.989,10.053,5.974,13.064c3.981,3.014,8.979,5.457,14.993,7.326
			c6.011,1.873,12.515,3.541,19.504,5.006c6.986,1.465,13.488,3.542,19.503,6.227c6.011,2.687,11.009,6.311,14.994,10.868
			c3.981,4.559,5.974,10.908,5.974,19.047c0,6.025-1.303,11.355-3.901,15.995c-2.603,4.641-6.179,8.509-10.727,11.601
			c-4.553,3.093-9.958,5.414-16.213,6.959c-6.258,1.546-13.127,2.32-20.6,2.32C376.705,369.03,370.08,367.931,364.312,365.733z
			 M506.791,515.392c-2.844,5.78-6.5,10.745-10.969,14.896c-4.473,4.15-9.795,7.369-15.97,9.646
			c-6.179,2.279-13.248,3.419-21.21,3.419c-10.08,0-18.772-1.709-26.087-5.128c-7.313-3.419-13.328-8.097-18.04-14.042
			c-4.717-5.939-8.209-12.979-10.483-21.124c-2.279-8.138-3.413-16.849-3.413-26.129c0-8.792,1.257-17.215,3.778-25.274
			c2.518-8.06,6.217-15.179,11.093-21.368c4.877-6.185,10.929-11.112,18.163-14.774c7.231-3.664,15.562-5.495,24.99-5.495
			c14.628,0,26.453,3.502,35.473,10.5c9.021,7.002,14.666,17.912,16.944,32.723h-14.873c-2.601-9.44-7.069-16.809-13.408-22.1
			c-6.338-5.289-14.384-7.937-24.136-7.937c-7.478,0-13.897,1.549-19.26,4.639c-5.364,3.095-9.752,7.205-13.166,12.333
			c-3.413,5.128-5.935,10.909-7.557,17.339c-1.627,6.432-2.439,12.904-2.439,19.413c0,6.677,0.77,13.187,2.316,19.537
			c1.543,6.35,4.023,12.05,7.436,17.093c3.414,5.048,7.802,9.079,13.166,12.088c5.363,3.016,11.862,4.518,19.503,4.518
			c10.887,0,19.625-3.009,26.208-9.033c6.583-6.022,10.766-14.324,12.556-24.91h15.602
			C511.707,503.224,509.636,509.616,506.791,515.392z M504.13,369.03c-10.078,0-18.771-1.709-26.085-5.128
			c-7.313-3.42-13.328-8.098-18.041-14.042c-4.716-5.941-8.208-12.98-10.483-21.124c-2.278-8.139-3.413-16.851-3.413-26.129
			c0-8.792,1.257-17.217,3.779-25.276c2.518-8.058,6.217-15.179,11.093-21.368c4.875-6.185,10.929-11.111,18.163-14.773
			c7.231-3.664,15.561-5.496,24.988-5.496c14.629,0,26.454,3.504,35.474,10.501c9.021,7.002,14.666,17.911,16.945,32.724h-14.871
			c-2.604-9.44-7.072-16.809-13.41-22.101c-6.34-5.289-14.384-7.937-24.138-7.937c-7.477,0-13.896,1.55-19.258,4.641
			c-5.364,3.094-9.752,7.204-13.166,12.332c-3.413,5.129-5.935,10.909-7.558,17.339c-1.625,6.434-2.438,12.905-2.438,19.415
			c0,6.677,0.77,13.186,2.316,19.536c1.543,6.349,4.022,12.05,7.436,17.094c3.414,5.048,7.802,9.078,13.165,12.088
			c5.364,3.015,11.862,4.518,19.503,4.518c10.889,0,19.627-3.01,26.21-9.035c6.582-6.021,10.766-14.324,12.555-24.91h15.604
			c-1.303,7.002-3.374,13.393-6.218,19.171c-2.844,5.78-6.502,10.744-10.971,14.896c-4.471,4.15-9.793,7.367-15.968,9.646
			C519.164,367.89,512.092,369.03,504.13,369.03z M646.854,504.036c-2.765,8.145-6.705,15.142-11.823,21.001
			c-5.12,5.863-11.3,10.379-18.529,13.555c-7.235,3.174-15.236,4.761-24.013,4.761c-8.13-0.162-15.727-1.63-22.796-4.396
			c-7.069-2.767-13.25-6.917-18.53-12.455c-5.282-5.53-9.469-12.452-12.555-20.757c-3.089-8.303-4.633-17.986-4.633-29.059
			c0-9.28,1.22-17.949,3.658-26.008c2.437-8.058,6.095-15.099,10.971-21.124c4.875-6.02,10.971-10.782,18.285-14.286
			c7.314-3.498,15.846-5.25,25.6-5.25c9.91,0,18.527,1.752,25.842,5.25c7.314,3.504,13.409,8.223,18.284,14.165
			c4.876,5.945,8.492,12.984,10.849,21.124c2.354,8.142,3.536,16.85,3.536,26.129C651,486.782,649.615,495.898,646.854,504.036z
			 M675.765,365.612h-14.626V283.07c0-11.393-2.521-19.94-7.56-25.641c-5.038-5.697-13.41-8.548-25.11-8.548
			c-4.553,0-8.698,0.695-12.435,2.077c-3.741,1.384-7.112,3.216-10.118,5.494c-3.009,2.282-5.568,4.884-7.68,7.814
			c-2.114,2.93-3.74,6.025-4.875,9.28c-1.462,4.071-2.356,7.978-2.682,11.722c-0.327,3.747-0.487,7.814-0.487,12.21v68.133h-14.629
			V189.785h14.629v66.911c5.851-6.185,11.905-11.233,18.162-15.14c6.255-3.907,13.774-5.861,22.551-5.861
			c7.802,0,15.031,1.343,21.699,4.03c6.662,2.687,12.27,7.368,16.823,14.042c3.083,4.559,4.912,9.241,5.484,14.042
			c0.567,4.804,0.853,9.81,0.853,15.019V365.612z M778.018,539.934h-14.626v-17.582c-1.952,2.281-4.146,4.641-6.583,7.082
			c-2.438,2.441-5.242,4.683-8.411,6.717c-3.171,2.037-6.87,3.746-11.093,5.128c-4.229,1.38-9.106,2.074-14.629,2.074
			c-8.452,0-15.523-1.183-21.209-3.541c-5.692-2.356-10.283-5.655-13.777-9.889c-3.496-4.233-6.015-9.158-7.557-14.776
			c-1.547-5.615-2.316-11.758-2.316-18.436v-83.273h14.629v83.03c0,10.908,2.517,19.255,7.557,25.029
			c5.036,5.78,13.325,8.669,24.867,8.669c6.013,0,11.418-1.179,16.214-3.541c4.793-2.356,8.813-5.652,12.067-9.888
			c3.249-4.233,5.768-9.281,7.557-15.142c1.787-5.861,2.685-12.29,2.685-19.292v-68.866h14.626V539.934z M710.628,325.196
			c1.787,6.105,4.426,11.396,7.924,15.874c3.494,4.479,7.922,8.058,13.287,10.744c5.363,2.687,11.538,4.03,18.527,4.03
			c9.589,0,17.798-2.523,24.625-7.571c6.825-5.044,11.376-12.21,13.652-21.49h16.333c-1.789,6.025-4.144,11.6-7.069,16.728
			c-2.924,5.128-6.582,9.607-10.971,13.431c-4.388,3.827-9.591,6.8-15.604,8.914c-6.015,2.114-13.005,3.175-20.967,3.175
			c-10.078,0-18.772-1.709-26.087-5.128c-7.312-3.42-13.326-8.098-18.039-14.042c-4.716-5.941-8.21-12.943-10.483-21.001
			c-2.279-8.06-3.414-16.729-3.414-26.008s1.342-17.988,4.023-26.129c2.682-8.139,6.497-15.262,11.458-21.369
			c4.955-6.105,11.011-10.904,18.162-14.408c7.152-3.499,15.276-5.25,24.38-5.25c17.391,0,31.043,5.984,40.959,17.949
			c9.913,11.967,14.788,29.347,14.629,52.138h-98.008C707.946,312.62,708.839,319.091,710.628,325.196z M913.569,539.934H898.94
			v-82.54c0-11.394-2.521-19.941-7.557-25.642c-5.04-5.696-13.409-8.546-25.109-8.546c-4.554,0-8.699,0.695-12.436,2.075
			c-3.741,1.386-7.112,3.217-10.118,5.496c-3.009,2.281-5.567,4.884-7.68,7.814c-2.113,2.93-3.74,6.025-4.875,9.28
			c-1.462,4.071-2.359,7.979-2.682,11.722c-0.327,3.747-0.487,7.814-0.487,12.21v68.132h-14.629V413.437h14.629v17.583
			c5.851-6.185,11.903-11.232,18.163-15.14c6.255-3.907,13.773-5.861,22.551-5.861c7.802,0,15.031,1.343,21.698,4.029
			c6.662,2.687,12.27,7.368,16.823,14.042c3.084,4.56,4.913,9.241,5.485,14.042c0.567,4.803,0.852,9.81,0.852,15.018V539.934z
			 M986.223,542.133c-2.927,0.812-6.181,1.22-9.754,1.22c-7.314,0-12.882-1.832-16.7-5.493c-3.819-3.663-5.728-10.216-5.728-19.659
			v-92.552h-17.798v-12.211h17.798v-35.165h14.626v35.165h23.65v12.211h-23.65v86.691c0,3.094,0.08,5.78,0.245,8.06
			c0.16,2.281,0.647,4.15,1.462,5.615c0.812,1.464,2.074,2.526,3.778,3.174c1.707,0.654,4.104,0.977,7.194,0.977
			c1.949,0,3.938-0.159,5.973-0.487c2.029-0.324,4.021-0.731,5.973-1.222v11.968C991.5,540.746,989.146,541.315,986.223,542.133z
			 M780.231,261.947c-3.333-3.987-7.519-7.162-12.555-9.524c-5.04-2.357-10.811-3.541-17.311-3.541
			c-6.502,0-12.232,1.222-17.188,3.664c-4.958,2.442-9.184,5.7-12.678,9.769c-3.496,4.071-6.3,8.79-8.411,14.163
			c-2.114,5.373-3.496,11.073-4.144,17.094h82.404c0-6.185-0.853-12.004-2.56-17.46
			C786.084,270.658,783.562,265.939,780.231,261.947z M625.4,438.713c-3.414-4.801-7.802-8.585-13.165-11.355
			c-5.362-2.766-11.947-4.152-19.746-4.152c-7.643,0-14.185,1.507-19.627,4.518c-5.448,3.014-9.874,7.001-13.287,11.965
			c-3.414,4.968-5.936,10.666-7.558,17.095c-1.627,6.434-2.438,13.064-2.438,19.903c0,7.814,0.935,15.019,2.804,21.612
			c1.867,6.592,4.591,12.252,8.167,16.971c3.573,4.725,8.046,8.386,13.409,10.99c5.363,2.606,11.538,3.905,18.53,3.905
			c7.637,0,14.177-1.502,19.624-4.518c5.443-3.009,9.873-7.04,13.287-12.088c3.414-5.043,5.933-10.743,7.557-17.093
			c1.625-6.35,2.439-12.943,2.439-19.781c0-7.487-0.814-14.488-2.439-21.001C631.333,449.175,628.814,443.516,625.4,438.713z"/>
	</g>
</g>
</svg>
