<?xml version="1.0" encoding="utf-8"?>
<!-- Generator: Adobe Illustrator 16.0.4, SVG Export Plug-In . SVG Version: 6.00 Build 0)  -->
<!DOCTYPE svg PUBLIC "-//W3C//DTD SVG 1.1//EN" "http://www.w3.org/Graphics/SVG/1.1/DTD/svg11.dtd">
<svg version="1.1" id="Ebene_1" xmlns="http://www.w3.org/2000/svg" xmlns:xlink="http://www.w3.org/1999/xlink" x="0px" y="0px"
	 width="512px" height="512px" viewBox="0 0 512 512" enable-background="new 0 0 512 512" xml:space="preserve">
<g>
	<g>
		<path fill="none" stroke="#000000" stroke-width="20" stroke-miterlimit="10" d="M97.97,195.978
			c-33.426,0-60.522,27.096-60.522,60.522c0,33.427,27.096,60.521,60.522,60.521c33.426,0,60.522-27.096,60.522-60.521
			S131.396,195.978,97.97,195.978z M414.03,195.978c-33.427,0-60.522,27.096-60.522,60.522c0,33.427,27.096,60.521,60.522,60.521
			c33.426,0,60.521-27.096,60.521-60.521C474.553,223.074,447.457,195.978,414.03,195.978z M259.361,195.978
			c-33.425,0-60.521,27.096-60.521,60.522c0,33.427,27.096,60.521,60.521,60.521c33.428,0,60.522-27.096,60.522-60.521
			C319.885,223.074,292.789,195.978,259.361,195.978z"/>
	</g>
</g>
</svg>
