<?xml version="1.0" encoding="utf-8"?>
<!-- Generator: Adobe Illustrator 16.0.4, SVG Export Plug-In . SVG Version: 6.00 Build 0)  -->
<!DOCTYPE svg PUBLIC "-//W3C//DTD SVG 1.1//EN" "http://www.w3.org/Graphics/SVG/1.1/DTD/svg11.dtd">
<svg version="1.1" id="Ebene_1" xmlns="http://www.w3.org/2000/svg" xmlns:xlink="http://www.w3.org/1999/xlink" x="0px" y="0px"
	 width="512px" height="512px" viewBox="0 0 512 512" enable-background="new 0 0 512 512" xml:space="preserve">
<path d="M131.264,203.79c-11.299,0-20.931-3.979-28.892-11.938c-7.961-7.963-11.939-17.592-11.939-28.891
	s3.979-20.928,11.939-28.891c7.961-7.958,17.592-11.942,28.892-11.942c11.299,0,20.928,3.984,28.888,11.942
	c7.961,7.963,11.943,17.592,11.943,28.891s-3.982,20.928-11.943,28.891C152.191,199.811,142.562,203.79,131.264,203.79
	L131.264,203.79z M226.793,162.961c0-26.363-9.333-48.876-27.991-67.541c-18.662-18.653-41.176-27.988-67.538-27.988
	c-26.366,0-48.88,9.335-67.538,27.988c-18.662,18.665-27.991,41.178-27.991,67.541c0,26.363,9.329,48.876,27.991,67.536
	c18.658,18.664,41.172,27.993,67.538,27.993c26.535,0,49.088-9.329,67.665-27.993C217.503,211.838,226.793,189.324,226.793,162.961
	L226.793,162.961z M421.703,349.911c0,11.3-3.979,20.928-11.942,28.892c-7.964,7.958-17.593,11.938-28.892,11.938
	s-20.928-3.979-28.886-11.938c-7.964-7.964-11.942-17.592-11.942-28.892s3.979-20.929,11.942-28.892
	c7.958-7.957,17.587-11.942,28.886-11.942s20.928,3.985,28.892,11.942C417.725,328.982,421.703,338.611,421.703,349.911
	L421.703,349.911z M476.398,349.911c0-26.362-9.336-48.876-27.988-67.541c-18.664-18.659-41.172-27.988-67.541-27.988
	c-26.362,0-48.876,9.29-67.535,27.864c-18.658,18.574-27.994,41.127-27.994,67.665c0,26.362,9.336,48.877,27.994,67.534
	c18.659,18.666,41.173,27.995,67.535,27.995c26.369,0,48.877-9.329,67.541-27.995C467.062,398.788,476.398,376.273,476.398,349.911
	L476.398,349.911z M131.777,447.749h39.747L378.916,65.632h-38.875L131.777,447.749z"/>
</svg>
